<?xml version="1.0" encoding="UTF-8" standalone="no"?>
<!DOCTYPE svg PUBLIC "-//W3C//DTD SVG 1.1//EN"
 "http://www.w3.org/Graphics/SVG/1.1/DTD/svg11.dtd">
<!-- Generated by graphviz version 3.0.0 (20220226.1711)
 -->
<!-- Title: snakemake_dag Pages: 1 -->
<svg width="220pt" height="692pt"
 viewBox="0.00 0.00 220.00 692.00" xmlns="http://www.w3.org/2000/svg" xmlns:xlink="http://www.w3.org/1999/xlink">
<g id="graph0" class="graph" transform="scale(1 1) rotate(0) translate(4 688)">
<title>snakemake_dag</title>
<polygon fill="white" stroke="transparent" points="-4,4 -4,-688 216,-688 216,4 -4,4"/>
<!-- 0 -->
<g id="node1" class="node">
<title>0</title>
<path fill="none" stroke="#d85656" stroke-width="2" d="M124,-36C124,-36 94,-36 94,-36 88,-36 82,-30 82,-24 82,-24 82,-12 82,-12 82,-6 88,0 94,0 94,0 124,0 124,0 130,0 136,-6 136,-12 136,-12 136,-24 136,-24 136,-30 130,-36 124,-36"/>
<text text-anchor="middle" x="109" y="-15.5" font-family="sans" font-size="10.00">all</text>
</g>
<!-- 1 -->
<g id="node2" class="node">
<title>1</title>
<path fill="none" stroke="#56d8a9" stroke-width="2" d="M124,-108C124,-108 94,-108 94,-108 88,-108 82,-102 82,-96 82,-96 82,-84 82,-84 82,-78 88,-72 94,-72 94,-72 124,-72 124,-72 130,-72 136,-78 136,-84 136,-84 136,-96 136,-96 136,-102 130,-108 124,-108"/>
<text text-anchor="middle" x="109" y="-87.5" font-family="sans" font-size="10.00">export</text>
</g>
<!-- 1&#45;&gt;0 -->
<g id="edge1" class="edge">
<title>1&#45;&gt;0</title>
<path fill="none" stroke="grey" stroke-width="2" d="M109,-71.7C109,-63.98 109,-54.71 109,-46.11"/>
<polygon fill="grey" stroke="grey" stroke-width="2" points="112.5,-46.1 109,-36.1 105.5,-46.1 112.5,-46.1"/>
</g>
<!-- 2 -->
<g id="node3" class="node">
<title>2</title>
<path fill="none" stroke="#59d856" stroke-width="2" d="M97,-324C97,-324 67,-324 67,-324 61,-324 55,-318 55,-312 55,-312 55,-300 55,-300 55,-294 61,-288 67,-288 67,-288 97,-288 97,-288 103,-288 109,-294 109,-300 109,-300 109,-312 109,-312 109,-318 103,-324 97,-324"/>
<text text-anchor="middle" x="82" y="-303.5" font-family="sans" font-size="10.00">refine</text>
</g>
<!-- 2&#45;&gt;1 -->
<g id="edge2" class="edge">
<title>2&#45;&gt;1</title>
<path fill="none" stroke="grey" stroke-width="2" d="M83.87,-287.58C87.08,-258.03 93.99,-196.16 101,-144 102.13,-135.57 103.48,-126.4 104.74,-118.1"/>
<polygon fill="grey" stroke="grey" stroke-width="2" points="108.2,-118.58 106.27,-108.17 101.29,-117.52 108.2,-118.58"/>
</g>
<!-- 8 -->
<g id="node9" class="node">
<title>8</title>
<path fill="none" stroke="#56d882" stroke-width="2" d="M42,-180C42,-180 12,-180 12,-180 6,-180 0,-174 0,-168 0,-168 0,-156 0,-156 0,-150 6,-144 12,-144 12,-144 42,-144 42,-144 48,-144 54,-150 54,-156 54,-156 54,-168 54,-168 54,-174 48,-180 42,-180"/>
<text text-anchor="middle" x="27" y="-159.5" font-family="sans" font-size="10.00">traits</text>
</g>
<!-- 2&#45;&gt;8 -->
<g id="edge14" class="edge">
<title>2&#45;&gt;8</title>
<path fill="none" stroke="grey" stroke-width="2" d="M75.37,-287.87C65.91,-263.46 48.47,-218.43 37.32,-189.64"/>
<polygon fill="grey" stroke="grey" stroke-width="2" points="40.53,-188.25 33.66,-180.19 34.01,-190.78 40.53,-188.25"/>
</g>
<!-- 9 -->
<g id="node10" class="node">
<title>9</title>
<path fill="none" stroke="#5682d8" stroke-width="2" d="M200,-252C200,-252 168,-252 168,-252 162,-252 156,-246 156,-240 156,-240 156,-228 156,-228 156,-222 162,-216 168,-216 168,-216 200,-216 200,-216 206,-216 212,-222 212,-228 212,-228 212,-240 212,-240 212,-246 206,-252 200,-252"/>
<text text-anchor="middle" x="184" y="-231.5" font-family="sans" font-size="10.00">ancestral</text>
</g>
<!-- 2&#45;&gt;9 -->
<g id="edge15" class="edge">
<title>2&#45;&gt;9</title>
<path fill="none" stroke="grey" stroke-width="2" d="M106.95,-287.88C120.04,-278.89 136.26,-267.76 150.44,-258.03"/>
<polygon fill="grey" stroke="grey" stroke-width="2" points="152.69,-260.73 158.95,-252.19 148.73,-254.96 152.69,-260.73"/>
</g>
<!-- 10 -->
<g id="node11" class="node">
<title>10</title>
<path fill="none" stroke="#d8ac56" stroke-width="2" d="M152,-180C152,-180 122,-180 122,-180 116,-180 110,-174 110,-168 110,-168 110,-156 110,-156 110,-150 116,-144 122,-144 122,-144 152,-144 152,-144 158,-144 164,-150 164,-156 164,-156 164,-168 164,-168 164,-174 158,-180 152,-180"/>
<text text-anchor="middle" x="137" y="-159.5" font-family="sans" font-size="10.00">translate</text>
</g>
<!-- 2&#45;&gt;10 -->
<g id="edge17" class="edge">
<title>2&#45;&gt;10</title>
<path fill="none" stroke="grey" stroke-width="2" d="M88.63,-287.87C98.09,-263.46 115.53,-218.43 126.68,-189.64"/>
<polygon fill="grey" stroke="grey" stroke-width="2" points="129.99,-190.78 130.34,-180.19 123.47,-188.25 129.99,-190.78"/>
</g>
<!-- 3 -->
<g id="node4" class="node">
<title>3</title>
<path fill="none" stroke="#d88556" stroke-width="2" stroke-dasharray="5,2" d="M110,-468C110,-468 80,-468 80,-468 74,-468 68,-462 68,-456 68,-456 68,-444 68,-444 68,-438 74,-432 80,-432 80,-432 110,-432 110,-432 116,-432 122,-438 122,-444 122,-444 122,-456 122,-456 122,-462 116,-468 110,-468"/>
<text text-anchor="middle" x="95" y="-447.5" font-family="sans" font-size="10.00">tree</text>
</g>
<!-- 3&#45;&gt;2 -->
<g id="edge6" class="edge">
<title>3&#45;&gt;2</title>
<path fill="none" stroke="grey" stroke-width="2" d="M93.43,-431.87C91.22,-407.67 87.15,-363.21 84.51,-334.39"/>
<polygon fill="grey" stroke="grey" stroke-width="2" points="87.97,-333.83 83.57,-324.19 81,-334.47 87.97,-333.83"/>
</g>
<!-- 7 -->
<g id="node8" class="node">
<title>7</title>
<path fill="none" stroke="#80d856" stroke-width="2" d="M148,-396C148,-396 118,-396 118,-396 112,-396 106,-390 106,-384 106,-384 106,-372 106,-372 106,-366 112,-360 118,-360 118,-360 148,-360 148,-360 154,-360 160,-366 160,-372 160,-372 160,-384 160,-384 160,-390 154,-396 148,-396"/>
<text text-anchor="middle" x="133" y="-375.5" font-family="sans" font-size="10.00">phytest</text>
</g>
<!-- 3&#45;&gt;7 -->
<g id="edge13" class="edge">
<title>3&#45;&gt;7</title>
<path fill="none" stroke="grey" stroke-width="2" d="M104.39,-431.7C108.76,-423.64 114.06,-413.89 118.9,-404.98"/>
<polygon fill="grey" stroke="grey" stroke-width="2" points="122.02,-406.56 123.71,-396.1 115.87,-403.22 122.02,-406.56"/>
</g>
<!-- 4 -->
<g id="node5" class="node">
<title>4</title>
<path fill="none" stroke="#56a9d8" stroke-width="2" stroke-dasharray="5,2" d="M137,-540C137,-540 107,-540 107,-540 101,-540 95,-534 95,-528 95,-528 95,-516 95,-516 95,-510 101,-504 107,-504 107,-504 137,-504 137,-504 143,-504 149,-510 149,-516 149,-516 149,-528 149,-528 149,-534 143,-540 137,-540"/>
<text text-anchor="middle" x="122" y="-519.5" font-family="sans" font-size="10.00">align</text>
</g>
<!-- 4&#45;&gt;2 -->
<g id="edge7" class="edge">
<title>4&#45;&gt;2</title>
<path fill="none" stroke="grey" stroke-width="2" d="M94.99,-506.07C81.49,-497 66.48,-484.07 59,-468 38.59,-424.16 55.79,-366.91 69.4,-333.82"/>
<polygon fill="grey" stroke="grey" stroke-width="2" points="72.73,-334.94 73.47,-324.37 66.3,-332.17 72.73,-334.94"/>
</g>
<!-- 4&#45;&gt;3 -->
<g id="edge9" class="edge">
<title>4&#45;&gt;3</title>
<path fill="none" stroke="grey" stroke-width="2" d="M115.33,-503.7C112.29,-495.81 108.62,-486.3 105.24,-477.55"/>
<polygon fill="grey" stroke="grey" stroke-width="2" points="108.46,-476.17 101.6,-468.1 101.93,-478.69 108.46,-476.17"/>
</g>
<!-- 4&#45;&gt;7 -->
<g id="edge12" class="edge">
<title>4&#45;&gt;7</title>
<path fill="none" stroke="grey" stroke-width="2" d="M125.56,-503.9C127.54,-493.56 129.85,-480.08 131,-468 132.97,-447.36 133.43,-423.91 133.41,-406.27"/>
<polygon fill="grey" stroke="grey" stroke-width="2" points="136.91,-406.08 133.35,-396.11 129.91,-406.13 136.91,-406.08"/>
</g>
<!-- 4&#45;&gt;9 -->
<g id="edge16" class="edge">
<title>4&#45;&gt;9</title>
<path fill="none" stroke="grey" stroke-width="2" d="M130.52,-503.55C135.36,-493.32 141.36,-480.07 146,-468 158.06,-436.65 162.29,-428.92 169,-396 178.47,-349.54 181.97,-294.3 183.26,-262.09"/>
<polygon fill="grey" stroke="grey" stroke-width="2" points="186.76,-262.22 183.62,-252.1 179.76,-261.97 186.76,-262.22"/>
</g>
<!-- 5 -->
<g id="node6" class="node">
<title>5</title>
<path fill="none" stroke="#56d8d8" stroke-width="2" stroke-dasharray="5,2" d="M137,-612C137,-612 107,-612 107,-612 101,-612 95,-606 95,-600 95,-600 95,-588 95,-588 95,-582 101,-576 107,-576 107,-576 137,-576 137,-576 143,-576 149,-582 149,-588 149,-588 149,-600 149,-600 149,-606 143,-612 137,-612"/>
<text text-anchor="middle" x="122" y="-591.5" font-family="sans" font-size="10.00">filter</text>
</g>
<!-- 5&#45;&gt;4 -->
<g id="edge10" class="edge">
<title>5&#45;&gt;4</title>
<path fill="none" stroke="grey" stroke-width="2" d="M122,-575.7C122,-567.98 122,-558.71 122,-550.11"/>
<polygon fill="grey" stroke="grey" stroke-width="2" points="125.5,-550.1 122,-540.1 118.5,-550.1 125.5,-550.1"/>
</g>
<!-- 6 -->
<g id="node7" class="node">
<title>6</title>
<path fill="none" stroke="#d6d856" stroke-width="2" stroke-dasharray="5,2" d="M156,-684C156,-684 88,-684 88,-684 82,-684 76,-678 76,-672 76,-672 76,-660 76,-660 76,-654 82,-648 88,-648 88,-648 156,-648 156,-648 162,-648 168,-654 168,-660 168,-660 168,-672 168,-672 168,-678 162,-684 156,-684"/>
<text text-anchor="middle" x="122" y="-663.5" font-family="sans" font-size="10.00">index_sequences</text>
</g>
<!-- 6&#45;&gt;5 -->
<g id="edge11" class="edge">
<title>6&#45;&gt;5</title>
<path fill="none" stroke="grey" stroke-width="2" d="M122,-647.7C122,-639.98 122,-630.71 122,-622.11"/>
<polygon fill="grey" stroke="grey" stroke-width="2" points="125.5,-622.1 122,-612.1 118.5,-622.1 125.5,-622.1"/>
</g>
<!-- 7&#45;&gt;2 -->
<g id="edge8" class="edge">
<title>7&#45;&gt;2</title>
<path fill="none" stroke="grey" stroke-width="2" d="M120.39,-359.7C114.4,-351.47 107.12,-341.48 100.52,-332.42"/>
<polygon fill="grey" stroke="grey" stroke-width="2" points="103.18,-330.13 94.46,-324.1 97.52,-334.25 103.18,-330.13"/>
</g>
<!-- 8&#45;&gt;1 -->
<g id="edge3" class="edge">
<title>8&#45;&gt;1</title>
<path fill="none" stroke="grey" stroke-width="2" d="M47.27,-143.7C57.5,-134.97 70.06,-124.24 81.18,-114.75"/>
<polygon fill="grey" stroke="grey" stroke-width="2" points="83.63,-117.26 88.96,-108.1 79.09,-111.94 83.63,-117.26"/>
</g>
<!-- 9&#45;&gt;1 -->
<g id="edge4" class="edge">
<title>9&#45;&gt;1</title>
<path fill="none" stroke="grey" stroke-width="2" d="M185.5,-215.8C186.34,-196.99 185.34,-166.53 173,-144 166.26,-131.7 155.41,-121.1 144.55,-112.68"/>
<polygon fill="grey" stroke="grey" stroke-width="2" points="146.44,-109.73 136.3,-106.67 142.32,-115.39 146.44,-109.73"/>
</g>
<!-- 9&#45;&gt;10 -->
<g id="edge18" class="edge">
<title>9&#45;&gt;10</title>
<path fill="none" stroke="grey" stroke-width="2" d="M172.38,-215.7C166.86,-207.47 160.15,-197.48 154.07,-188.42"/>
<polygon fill="grey" stroke="grey" stroke-width="2" points="156.96,-186.46 148.48,-180.1 151.15,-190.36 156.96,-186.46"/>
</g>
<!-- 10&#45;&gt;1 -->
<g id="edge5" class="edge">
<title>10&#45;&gt;1</title>
<path fill="none" stroke="grey" stroke-width="2" d="M130.08,-143.7C126.93,-135.81 123.12,-126.3 119.62,-117.55"/>
<polygon fill="grey" stroke="grey" stroke-width="2" points="122.81,-116.09 115.84,-108.1 116.31,-118.69 122.81,-116.09"/>
</g>
</g>
</svg>
