<?xml version="1.0" encoding="utf-8"?>
<svg width="912pt" height="170pt" viewBox="0.00 0.00 912.00 170.00" xmlns="http://www.w3.org/2000/svg">
  <g id="graph0" class="graph" transform="scale(1 1) rotate(0) translate(4 166)">
    <title>snakemake_dag</title>
    <polygon fill="white" stroke="transparent" points="-4,4 -4,-166 908,-166 908,4 -4,4"/>
    <g id="node1" class="node">
      <title>0</title>
      <path fill="none" stroke="#56d8a9" stroke-width="2" stroke-dasharray="5,2" d="M892,-93C892,-93 862,-93 862,-93 856,-93 850,-87 850,-81 850,-81 850,-69 850,-69 850,-63 856,-57 862,-57 862,-57 892,-57 892,-57 898,-57 904,-63 904,-69 904,-69 904,-81 904,-81 904,-87 898,-93 892,-93"/>
      <text text-anchor="middle" x="877" y="-72.5" font-family="sans" font-size="10.00" style="white-space: pre;">all</text>
    </g>
    <g id="node2" class="node">
      <title>1</title>
      <path fill="none" stroke="#d85656" stroke-width="2" stroke-dasharray="5,2" d="M802,-93C802,-93 772,-93 772,-93 766,-93 760,-87 760,-81 760,-81 760,-69 760,-69 760,-63 766,-57 772,-57 772,-57 802,-57 802,-57 808,-57 814,-63 814,-69 814,-69 814,-81 814,-81 814,-87 808,-93 802,-93"/>
      <text text-anchor="middle" x="787" y="-72.5" font-family="sans" font-size="10.00" style="white-space: pre;">export</text>
    </g>
    <g id="edge1" class="edge">
      <title>1-&gt;0</title>
      <path fill="none" stroke="grey" stroke-width="2" d="M814.4,-75C822.39,-75 831.31,-75 839.82,-75"/>
      <polygon fill="grey" stroke="grey" stroke-width="2" points="839.92,-78.5 849.92,-75 839.92,-71.5 839.92,-78.5"/>
    </g>
    <g id="node3" class="node">
      <title>2</title>
      <path fill="none" stroke="#80d856" stroke-width="2" stroke-dasharray="5,2" d="M530,-116C530,-116 500,-116 500,-116 494,-116 488,-110 488,-104 488,-104 488,-92 488,-92 488,-86 494,-80 500,-80 500,-80 530,-80 530,-80 536,-80 542,-86 542,-92 542,-92 542,-104 542,-104 542,-110 536,-116 530,-116"/>
      <text text-anchor="middle" x="515" y="-95.5" font-family="sans" font-size="10.00" style="white-space: pre;">refine</text>
    </g>
    <g id="edge2" class="edge">
      <title>2-&gt;1</title>
      <path fill="none" stroke="grey" stroke-width="2" d="M542.16,-109.98C582.46,-126.66 661.6,-152.36 724,-129 739.53,-123.18 753.74,-111.52 764.62,-100.52"/>
      <polygon fill="grey" stroke="grey" stroke-width="2" points="767.3,-102.78 771.6,-93.09 762.2,-97.99 767.3,-102.78"/>
    </g>
    <g id="node9" class="node">
      <title>8</title>
      <path fill="none" stroke="#56d8d8" stroke-width="2" stroke-dasharray="5,2" d="M712,-120C712,-120 682,-120 682,-120 676,-120 670,-114 670,-108 670,-108 670,-96 670,-96 670,-90 676,-84 682,-84 682,-84 712,-84 712,-84 718,-84 724,-90 724,-96 724,-96 724,-108 724,-108 724,-114 718,-120 712,-120"/>
      <text text-anchor="middle" x="697" y="-99.5" font-family="sans" font-size="10.00" style="white-space: pre;">traits</text>
    </g>
    <g id="edge14" class="edge">
      <title>2-&gt;8</title>
      <path fill="none" stroke="grey" stroke-width="2" d="M542.17,-98.58C573.1,-99.27 624.75,-100.42 659.57,-101.19"/>
      <polygon fill="grey" stroke="grey" stroke-width="2" points="659.72,-104.69 669.79,-101.42 659.88,-97.7 659.72,-104.69"/>
    </g>
    <g id="node10" class="node">
      <title>9</title>
      <path fill="none" stroke="#59d856" stroke-width="2" stroke-dasharray="5,2" d="M622,-36C622,-36 590,-36 590,-36 584,-36 578,-30 578,-24 578,-24 578,-12 578,-12 578,-6 584,0 590,0 590,0 622,0 622,0 628,0 634,-6 634,-12 634,-12 634,-24 634,-24 634,-30 628,-36 622,-36"/>
      <text text-anchor="middle" x="606" y="-15.5" font-family="sans" font-size="10.00" style="white-space: pre;">ancestral</text>
    </g>
    <g id="edge15" class="edge">
      <title>2-&gt;9</title>
      <path fill="none" stroke="grey" stroke-width="2" d="M536.2,-79.85C548.37,-68.9 564.05,-54.81 577.36,-42.84"/>
      <polygon fill="grey" stroke="grey" stroke-width="2" points="579.79,-45.37 584.88,-36.08 575.11,-40.16 579.79,-45.37"/>
    </g>
    <g id="node11" class="node">
      <title>10</title>
      <path fill="none" stroke="#56a9d8" stroke-width="2" stroke-dasharray="5,2" d="M712,-66C712,-66 682,-66 682,-66 676,-66 670,-60 670,-54 670,-54 670,-42 670,-42 670,-36 676,-30 682,-30 682,-30 712,-30 712,-30 718,-30 724,-36 724,-42 724,-42 724,-54 724,-54 724,-60 718,-66 712,-66"/>
      <text text-anchor="middle" x="697" y="-45.5" font-family="sans" font-size="10.00" style="white-space: pre;">translate</text>
    </g>
    <g id="edge17" class="edge">
      <title>2-&gt;10</title>
      <path fill="none" stroke="grey" stroke-width="2" d="M542.17,-90.73C573.23,-82.1 625.19,-67.67 660.02,-57.99"/>
      <polygon fill="grey" stroke="grey" stroke-width="2" points="661.1,-61.33 669.79,-55.28 659.22,-54.58 661.1,-61.33"/>
    </g>
    <g id="node4" class="node">
      <title>3</title>
      <path fill="none" stroke="#5682d8" stroke-width="2" stroke-dasharray="5,2" d="M350,-120C350,-120 320,-120 320,-120 314,-120 308,-114 308,-108 308,-108 308,-96 308,-96 308,-90 314,-84 320,-84 320,-84 350,-84 350,-84 356,-84 362,-90 362,-96 362,-96 362,-108 362,-108 362,-114 356,-120 350,-120"/>
      <text text-anchor="middle" x="335" y="-99.5" font-family="sans" font-size="10.00" style="white-space: pre;">tree</text>
    </g>
    <g id="edge6" class="edge">
      <title>3-&gt;2</title>
      <path fill="none" stroke="grey" stroke-width="2" d="M362.26,-101.41C392.85,-100.72 443.55,-99.58 477.84,-98.81"/>
      <polygon fill="grey" stroke="grey" stroke-width="2" points="478,-102.31 487.92,-98.59 477.84,-95.31 478,-102.31"/>
    </g>
    <g id="node8" class="node">
      <title>7</title>
      <path fill="none" stroke="#d6d856" stroke-width="2" stroke-dasharray="5,2" d="M440,-162C440,-162 410,-162 410,-162 404,-162 398,-156 398,-150 398,-150 398,-138 398,-138 398,-132 404,-126 410,-126 410,-126 440,-126 440,-126 446,-126 452,-132 452,-138 452,-138 452,-150 452,-150 452,-156 446,-162 440,-162"/>
      <text text-anchor="middle" x="425" y="-141.5" font-family="sans" font-size="10.00" style="white-space: pre; visibility: hidden;">phytest</text>
    </g>
    <g id="edge13" class="edge">
      <title>3-&gt;7</title>
      <path fill="none" stroke="grey" stroke-width="2" d="M362.4,-114.6C370.66,-118.54 379.9,-122.95 388.66,-127.14"/>
      <polygon fill="grey" stroke="grey" stroke-width="2" points="387.39,-130.4 397.92,-131.55 390.4,-124.09 387.39,-130.4"/>
    </g>
    <g id="node5" class="node">
      <title>4</title>
      <path fill="none" stroke="#afd856" stroke-width="2" stroke-dasharray="5,2" d="M260,-97C260,-97 230,-97 230,-97 224,-97 218,-91 218,-85 218,-85 218,-73 218,-73 218,-67 224,-61 230,-61 230,-61 260,-61 260,-61 266,-61 272,-67 272,-73 272,-73 272,-85 272,-85 272,-91 266,-97 260,-97"/>
      <text text-anchor="middle" x="245" y="-76.5" font-family="sans" font-size="10.00" style="white-space: pre;">align</text>
    </g>
    <g id="edge7" class="edge">
      <title>4-&gt;2</title>
      <path fill="none" stroke="grey" stroke-width="2" d="M272.23,-76.93C283.26,-76.16 296.25,-75.38 308,-75 331.99,-74.23 338.07,-73.2 362,-75 401.76,-77.99 446.87,-85.32 477.56,-90.91"/>
      <polygon fill="grey" stroke="grey" stroke-width="2" points="477.3,-94.42 487.78,-92.81 478.58,-87.54 477.3,-94.42"/>
    </g>
    <g id="edge9" class="edge">
      <title>4-&gt;3</title>
      <path fill="none" stroke="grey" stroke-width="2" d="M272.4,-85.9C280.48,-88.01 289.51,-90.37 298.1,-92.62"/>
      <polygon fill="grey" stroke="grey" stroke-width="2" points="297.36,-96.04 307.92,-95.18 299.13,-89.27 297.36,-96.04"/>
    </g>
    <g id="edge12" class="edge">
      <title>4-&gt;7</title>
      <path fill="none" stroke="grey" stroke-width="2" d="M262.95,-97.04C274.53,-108.16 290.83,-121.67 308,-129 333.1,-139.72 363.82,-143.32 387.34,-144.32"/>
      <polygon fill="grey" stroke="grey" stroke-width="2" points="387.5,-147.82 397.6,-144.61 387.7,-140.83 387.5,-147.82"/>
    </g>
    <g id="edge16" class="edge">
      <title>4-&gt;9</title>
      <path fill="none" stroke="grey" stroke-width="2" d="M272.11,-74.56C334.85,-63.9 494.32,-36.81 567.39,-24.39"/>
      <polygon fill="grey" stroke="grey" stroke-width="2" points="568.25,-27.79 577.52,-22.67 567.08,-20.89 568.25,-27.79"/>
    </g>
    <g id="node6" class="node">
      <title>5</title>
      <path fill="none" stroke="#56d882" stroke-width="2" stroke-dasharray="5,2" d="M170,-97C170,-97 140,-97 140,-97 134,-97 128,-91 128,-85 128,-85 128,-73 128,-73 128,-67 134,-61 140,-61 140,-61 170,-61 170,-61 176,-61 182,-67 182,-73 182,-73 182,-85 182,-85 182,-91 176,-97 170,-97"/>
      <text text-anchor="middle" x="155" y="-76.5" font-family="sans" font-size="10.00" style="white-space: pre;">filter</text>
    </g>
    <g id="edge10" class="edge">
      <title>5-&gt;4</title>
      <path fill="none" stroke="grey" stroke-width="2" d="M182.4,-79C190.39,-79 199.31,-79 207.82,-79"/>
      <polygon fill="grey" stroke="grey" stroke-width="2" points="207.92,-82.5 217.92,-79 207.92,-75.5 207.92,-82.5"/>
    </g>
    <g id="node7" class="node">
      <title>6</title>
      <path fill="none" stroke="#d8ac56" stroke-width="2" stroke-dasharray="5,2" d="M80,-97C80,-97 12,-97 12,-97 6,-97 0,-91 0,-85 0,-85 0,-73 0,-73 0,-67 6,-61 12,-61 12,-61 80,-61 80,-61 86,-61 92,-67 92,-73 92,-73 92,-85 92,-85 92,-91 86,-97 80,-97"/>
      <text text-anchor="middle" x="46" y="-76.5" font-family="sans" font-size="10.00" style="white-space: pre;">index_sequences</text>
    </g>
    <g id="edge11" class="edge">
      <title>6-&gt;5</title>
      <path fill="none" stroke="grey" stroke-width="2" d="M92.07,-79C100.66,-79 109.55,-79 117.83,-79"/>
      <polygon fill="grey" stroke="grey" stroke-width="2" points="117.9,-82.5 127.9,-79 117.9,-75.5 117.9,-82.5"/>
    </g>
    <g id="edge8" class="edge">
      <title>7-&gt;2</title>
      <path fill="none" stroke="grey" stroke-width="2" d="M452.4,-130.2C460.74,-125.84 470.1,-120.95 478.94,-116.32"/>
      <polygon fill="grey" stroke="grey" stroke-width="2" points="480.68,-119.37 487.92,-111.63 477.44,-113.16 480.68,-119.37"/>
    </g>
    <g id="edge3" class="edge">
      <title>8-&gt;1</title>
      <path fill="none" stroke="grey" stroke-width="2" d="M724.4,-93.9C732.48,-91.42 741.51,-88.65 750.1,-86.01"/>
      <polygon fill="grey" stroke="grey" stroke-width="2" points="751.39,-89.28 759.92,-83 749.33,-82.59 751.39,-89.28"/>
    </g>
    <g id="edge4" class="edge">
      <title>9-&gt;1</title>
      <path fill="none" stroke="grey" stroke-width="2" d="M634.03,-13.65C658.42,-10.87 694.84,-9.65 724,-21 739.35,-26.97 753.45,-38.53 764.32,-49.42"/>
      <polygon fill="grey" stroke="grey" stroke-width="2" points="761.88,-51.94 771.3,-56.78 766.96,-47.12 761.88,-51.94"/>
    </g>
    <g id="edge18" class="edge">
      <title>9-&gt;10</title>
      <path fill="none" stroke="grey" stroke-width="2" d="M634.19,-27.16C642.43,-29.94 651.62,-33.04 660.33,-35.98"/>
      <polygon fill="grey" stroke="grey" stroke-width="2" points="659.3,-39.32 669.89,-39.2 661.54,-32.69 659.3,-39.32"/>
    </g>
    <g id="edge5" class="edge">
      <title>10-&gt;1</title>
      <path fill="none" stroke="grey" stroke-width="2" d="M724.4,-56.1C732.48,-58.58 741.51,-61.35 750.1,-63.99"/>
      <polygon fill="grey" stroke="grey" stroke-width="2" points="749.33,-67.41 759.92,-67 751.39,-60.72 749.33,-67.41"/>
    </g>
  </g>
  <g transform="matrix(0.043054, 0, 0, 0.043054, 400.985016, 12.582734)" style="">
    <g transform="matrix(1, 0, 0, 1, -0.000035, -0.000001)">
      <title>logo</title>
      <g>
        <title>tree</title>
        <polyline style="fill: none; stroke-linecap: round; stroke-linejoin: round; stroke: rgb(127, 140, 141); stroke-width: 23.2266px;" points="287.823 225.159 235.994 225.159 235.994 146.05 287.897 146.05"/>
        <polyline style="fill: none; stroke-linecap: round; stroke-linejoin: round; stroke: rgb(127, 140, 141); stroke-width: 23.2266px;" points="235.639 185.716 178.087 185.716 178.087 295.494 287.859 295.494"/>
      </g>
      <path stroke-linecap="round" stroke-linejoin="round" d="M 304.033 145.271 L 306.285 147.523 L 310.789 143.019 M 317.544 145.271 C 317.544 153.071 309.1 157.948 302.345 154.046 C 299.21 152.237 297.278 148.892 297.278 145.271 C 297.278 137.471 305.722 132.596 312.478 136.496 C 315.613 138.306 317.544 141.651 317.544 145.271 Z" style="fill: none; stroke: rgb(46, 204, 113); stroke-width: 23.2266px;"/>
      <path stroke-linecap="round" stroke-linejoin="round" d="M 304.033 295.582 L 306.285 297.834 L 310.789 293.33 M 317.544 295.582 C 317.544 303.382 309.1 308.259 302.345 304.357 C 299.21 302.548 297.278 299.203 297.278 295.582 C 297.278 287.782 305.722 282.907 312.478 286.807 C 315.613 288.617 317.544 291.963 317.544 295.582 Z" style="fill: none; stroke: rgb(46, 204, 113); stroke-width: 23.2266px;"/>
      <path stroke-linecap="round" stroke-linejoin="round" d="M 305.159 227.581 L 307.411 225.329 M 307.411 225.329 L 309.663 223.077 M 307.411 225.329 L 305.159 223.077 M 307.411 225.329 L 309.663 227.581 M 317.544 225.329 C 317.544 233.129 309.1 238.004 302.345 234.104 C 299.21 232.294 297.278 228.949 297.278 225.329 C 297.278 217.528 305.722 212.653 312.478 216.553 C 315.613 218.363 317.544 221.708 317.544 225.329 Z" style="fill: none; stroke: rgb(231, 76, 60); stroke-width: 23.2266px;"/>
    </g>
    <text style="fill: rgb(44, 62, 80); font-family: Arial, sans-serif; font-size: 244.9px; stroke: rgb(127, 140, 141); stroke-linecap: round; stroke-linejoin: round; stroke-width: 4px; white-space: pre;" x="341.577" y="306.691">Phytest</text>
  </g>
</svg>